<?xml version="1.0" standalone="no"?>
<!DOCTYPE svg PUBLIC "-//W3C//DTD SVG 1.1//EN" "http://www.w3.org/Graphics/SVG/1.1/DTD/svg11.dtd" >
<svg xmlns="http://www.w3.org/2000/svg" xmlns:xlink="http://www.w3.org/1999/xlink" version="1.1">
<metadata>
Created by FontForge 20170731 at Wed Oct 10 22:22:33 2012
 By Aleksey,,,
Copyright Nate Halley 2012
</metadata>
<defs>
<font id="Erbos-Draco-1st-NBP" horiz-adv-x="452" >
  <font-face 
    font-family="Erbos Draco 1st NBP"
    font-weight="400"
    font-stretch="normal"
    units-per-em="1024"
    panose-1="0 0 4 0 0 0 0 0 0 0"
    ascent="819"
    descent="-205"
    x-height="576"
    cap-height="576"
    bbox="0 0 576 576"
    underline-thickness="51"
    underline-position="26"
    unicode-range="U+0020-201D"
  />
<missing-glyph 
d="M288 81v92h-92v-92h92zM379 188v92h-183v-92h183zM288 295v92h-92v-92h92zM379 402v91h-91q-39 0 -65 -26q-27 -27 -27 -65h183zM0 0v576h576v-576h-576z" />
    <glyph glyph-name=".notdef" 
d="M288 81v92h-92v-92h92zM379 188v92h-183v-92h183zM288 295v92h-92v-92h92zM379 402v91h-91q-39 0 -65 -26q-27 -27 -27 -65h183zM0 0v576h576v-576h-576z" />
    <glyph glyph-name="glyph1" 
 />
    <glyph glyph-name="glyph2" horiz-adv-x="192" 
 />
    <glyph glyph-name="space" unicode=" " 
d="M0 0v576h448v-576h-448z" />
    <glyph glyph-name="exclam" unicode="!" 
d="M249 70v51h-51v-51h51zM249 198v51h-51v-51h51zM249 262v51h-51v-51h51zM249 326v51h-51v-51h51zM249 390v51h-51v-51h51zM249 454v51h-51v-51h51zM0 0v576h448v-576h-448z" />
    <glyph glyph-name="quotedbl" unicode="&#x22;" 
d="M185 390v51h-51v-51h51zM313 390v51h-51v-51h51zM185 454v51h-51v-51h51zM313 454v51h-51v-51h51zM0 0v576h448v-576h-448z" />
    <glyph glyph-name="numbersign" unicode="#" 
d="M185 134v51h-51v-51h51zM313 134v51h-51v-51h51zM121 198v51h-51v-51h51zM185 198v51h-51v-51h51zM249 198v51h-51v-51h51zM313 198v51h-51v-51h51zM377 198v51h-51v-51h51zM185 262v51h-51v-51h51zM313 262v51h-51v-51h51zM121 326v51h-51v-51h51zM185 326v51h-51v-51
h51zM249 326v51h-51v-51h51zM313 326v51h-51v-51h51zM377 326v51h-51v-51h51zM185 390v51h-51v-51h51zM313 390v51h-51v-51h51zM0 0v576h448v-576h-448z" />
    <glyph glyph-name="dollar" unicode="$" 
d="M249 70v51h-51v-51h51zM121 134v51h-51v-51h51zM185 134v51h-51v-51h51zM249 134v51h-51v-51h51zM313 134v51h-51v-51h51zM249 198v51h-51v-51h51zM377 198v51h-51v-51h51zM185 262v51h-51v-51h51zM249 262v51h-51v-51h51zM313 262v51h-51v-51h51zM121 326v51h-51v-51h51
zM249 326v51h-51v-51h51zM185 390v51h-51v-51h51zM249 390v51h-51v-51h51zM313 390v51h-51v-51h51zM377 390v51h-51v-51h51zM249 454v51h-51v-51h51zM0 0v576h448v-576h-448z" />
    <glyph glyph-name="percent" unicode="%" 
d="M121 134v51h-51v-51h51zM313 134v51h-51v-51h51zM377 134v51h-51v-51h51zM185 198v51h-51v-51h51zM313 198v51h-51v-51h51zM377 198v51h-51v-51h51zM249 262v51h-51v-51h51zM121 326v51h-51v-51h51zM185 326v51h-51v-51h51zM313 326v51h-51v-51h51zM121 390v51h-51v-51
h51zM185 390v51h-51v-51h51zM377 390v51h-51v-51h51zM0 0v576h448v-576h-448z" />
    <glyph glyph-name="ampersand" unicode="&#x26;" 
d="M185 70v51h-51v-51h51zM249 70v51h-51v-51h51zM377 70v51h-51v-51h51zM121 134v51h-51v-51h51zM313 134v51h-51v-51h51zM121 198v51h-51v-51h51zM249 198v51h-51v-51h51zM185 262v51h-51v-51h51zM185 326v51h-51v-51h51zM249 326v51h-51v-51h51zM185 390v51h-51v-51h51z
M313 390v51h-51v-51h51zM249 454v51h-51v-51h51zM0 0v576h448v-576h-448z" />
    <glyph glyph-name="quotesingle" unicode="'" 
d="M249 390v51h-51v-51h51zM249 454v51h-51v-51h51zM0 0v576h448v-576h-448z" />
    <glyph glyph-name="parenleft" unicode="(" 
d="M377 70v51h-51v-51h51zM313 134v51h-51v-51h51zM249 198v51h-51v-51h51zM249 262v51h-51v-51h51zM249 326v51h-51v-51h51zM313 390v51h-51v-51h51zM377 454v51h-51v-51h51zM0 0v576h448v-576h-448z" />
    <glyph glyph-name="parenright" unicode=")" 
d="M121 70v51h-51v-51h51zM185 134v51h-51v-51h51zM249 198v51h-51v-51h51zM249 262v51h-51v-51h51zM249 326v51h-51v-51h51zM185 390v51h-51v-51h51zM121 454v51h-51v-51h51zM0 0v576h448v-576h-448z" />
    <glyph glyph-name="asterisk" unicode="*" 
d="M185 326v51h-51v-51h51zM313 326v51h-51v-51h51zM121 390v51h-51v-51h51zM185 390v51h-51v-51h51zM249 390v51h-51v-51h51zM313 390v51h-51v-51h51zM377 390v51h-51v-51h51zM249 454v51h-51v-51h51zM0 0v576h448v-576h-448z" />
    <glyph glyph-name="plus" unicode="+" 
d="M249 134v51h-51v-51h51zM249 198v51h-51v-51h51zM121 262v51h-51v-51h51zM185 262v51h-51v-51h51zM249 262v51h-51v-51h51zM313 262v51h-51v-51h51zM377 262v51h-51v-51h51zM249 326v51h-51v-51h51zM249 390v51h-51v-51h51zM0 0v576h448v-576h-448z" />
    <glyph glyph-name="comma" unicode="," 
d="M121 70v51h-51v-51h51zM185 134v51h-51v-51h51zM121 198v51h-51v-51h51zM185 198v51h-51v-51h51zM0 0v576h448v-576h-448z" />
    <glyph glyph-name="hyphen" unicode="-" 
d="M121 262v51h-51v-51h51zM185 262v51h-51v-51h51zM249 262v51h-51v-51h51zM313 262v51h-51v-51h51zM377 262v51h-51v-51h51zM0 0v576h448v-576h-448z" />
    <glyph glyph-name="period" unicode="." 
d="M121 70v51h-51v-51h51zM185 70v51h-51v-51h51zM121 134v51h-51v-51h51zM185 134v51h-51v-51h51zM0 0v576h448v-576h-448z" />
    <glyph glyph-name="slash" unicode="/" 
d="M121 134v51h-51v-51h51zM185 198v51h-51v-51h51zM249 262v51h-51v-51h51zM313 326v51h-51v-51h51zM377 390v51h-51v-51h51zM0 0v576h448v-576h-448z" />
    <glyph glyph-name="zero" unicode="0" 
d="M185 70v51h-51v-51h51zM249 70v51h-51v-51h51zM313 70v51h-51v-51h51zM121 134v51h-51v-51h51zM377 134v51h-51v-51h51zM121 198v51h-51v-51h51zM185 198v51h-51v-51h51zM377 198v51h-51v-51h51zM121 262v51h-51v-51h51zM249 262v51h-51v-51h51zM377 262v51h-51v-51h51z
M121 326v51h-51v-51h51zM313 326v51h-51v-51h51zM377 326v51h-51v-51h51zM121 390v51h-51v-51h51zM377 390v51h-51v-51h51zM185 454v51h-51v-51h51zM249 454v51h-51v-51h51zM313 454v51h-51v-51h51zM0 0v576h448v-576h-448z" />
    <glyph glyph-name="one" unicode="1" 
d="M185 70v51h-51v-51h51zM249 70v51h-51v-51h51zM313 70v51h-51v-51h51zM249 134v51h-51v-51h51zM249 198v51h-51v-51h51zM249 262v51h-51v-51h51zM249 326v51h-51v-51h51zM185 390v51h-51v-51h51zM249 390v51h-51v-51h51zM249 454v51h-51v-51h51zM0 0v576h448v-576h-448z
" />
    <glyph glyph-name="two" unicode="2" 
d="M121 70v51h-51v-51h51zM185 70v51h-51v-51h51zM249 70v51h-51v-51h51zM313 70v51h-51v-51h51zM377 70v51h-51v-51h51zM121 134v51h-51v-51h51zM185 198v51h-51v-51h51zM249 262v51h-51v-51h51zM313 262v51h-51v-51h51zM377 326v51h-51v-51h51zM121 390v51h-51v-51h51z
M377 390v51h-51v-51h51zM185 454v51h-51v-51h51zM249 454v51h-51v-51h51zM313 454v51h-51v-51h51zM0 0v576h448v-576h-448z" />
    <glyph glyph-name="three" unicode="3" 
d="M185 70v51h-51v-51h51zM249 70v51h-51v-51h51zM313 70v51h-51v-51h51zM121 134v51h-51v-51h51zM377 134v51h-51v-51h51zM377 198v51h-51v-51h51zM249 262v51h-51v-51h51zM313 262v51h-51v-51h51zM377 326v51h-51v-51h51zM121 390v51h-51v-51h51zM377 390v51h-51v-51h51z
M185 454v51h-51v-51h51zM249 454v51h-51v-51h51zM313 454v51h-51v-51h51zM0 0v576h448v-576h-448z" />
    <glyph glyph-name="four" unicode="4" 
d="M313 70v51h-51v-51h51zM313 134v51h-51v-51h51zM313 198v51h-51v-51h51zM121 262v51h-51v-51h51zM185 262v51h-51v-51h51zM249 262v51h-51v-51h51zM313 262v51h-51v-51h51zM377 262v51h-51v-51h51zM121 326v51h-51v-51h51zM313 326v51h-51v-51h51zM185 390v51h-51v-51h51
zM313 390v51h-51v-51h51zM249 454v51h-51v-51h51zM313 454v51h-51v-51h51zM0 0v576h448v-576h-448z" />
    <glyph glyph-name="five" unicode="5" 
d="M121 70v51h-51v-51h51zM185 70v51h-51v-51h51zM249 70v51h-51v-51h51zM313 70v51h-51v-51h51zM377 134v51h-51v-51h51zM377 198v51h-51v-51h51zM121 262v51h-51v-51h51zM185 262v51h-51v-51h51zM249 262v51h-51v-51h51zM313 262v51h-51v-51h51zM121 326v51h-51v-51h51z
M121 390v51h-51v-51h51zM121 454v51h-51v-51h51zM185 454v51h-51v-51h51zM249 454v51h-51v-51h51zM313 454v51h-51v-51h51zM377 454v51h-51v-51h51zM0 0v576h448v-576h-448z" />
    <glyph glyph-name="six" unicode="6" 
d="M185 70v51h-51v-51h51zM249 70v51h-51v-51h51zM313 70v51h-51v-51h51zM121 134v51h-51v-51h51zM377 134v51h-51v-51h51zM121 198v51h-51v-51h51zM377 198v51h-51v-51h51zM121 262v51h-51v-51h51zM185 262v51h-51v-51h51zM249 262v51h-51v-51h51zM313 262v51h-51v-51h51z
M121 326v51h-51v-51h51zM121 390v51h-51v-51h51zM377 390v51h-51v-51h51zM185 454v51h-51v-51h51zM249 454v51h-51v-51h51zM313 454v51h-51v-51h51zM0 0v576h448v-576h-448z" />
    <glyph glyph-name="seven" unicode="7" 
d="M249 70v51h-51v-51h51zM249 134v51h-51v-51h51zM249 198v51h-51v-51h51zM313 262v51h-51v-51h51zM377 326v51h-51v-51h51zM121 390v51h-51v-51h51zM377 390v51h-51v-51h51zM121 454v51h-51v-51h51zM185 454v51h-51v-51h51zM249 454v51h-51v-51h51zM313 454v51h-51v-51h51
zM377 454v51h-51v-51h51zM0 0v576h448v-576h-448z" />
    <glyph glyph-name="eight" unicode="8" 
d="M185 70v51h-51v-51h51zM249 70v51h-51v-51h51zM313 70v51h-51v-51h51zM121 134v51h-51v-51h51zM377 134v51h-51v-51h51zM121 198v51h-51v-51h51zM377 198v51h-51v-51h51zM185 262v51h-51v-51h51zM249 262v51h-51v-51h51zM313 262v51h-51v-51h51zM121 326v51h-51v-51h51z
M377 326v51h-51v-51h51zM121 390v51h-51v-51h51zM377 390v51h-51v-51h51zM185 454v51h-51v-51h51zM249 454v51h-51v-51h51zM313 454v51h-51v-51h51zM0 0v576h448v-576h-448z" />
    <glyph glyph-name="nine" unicode="9" 
d="M185 70v51h-51v-51h51zM249 70v51h-51v-51h51zM313 70v51h-51v-51h51zM121 134v51h-51v-51h51zM377 134v51h-51v-51h51zM377 198v51h-51v-51h51zM185 262v51h-51v-51h51zM249 262v51h-51v-51h51zM313 262v51h-51v-51h51zM377 262v51h-51v-51h51zM121 326v51h-51v-51h51z
M377 326v51h-51v-51h51zM121 390v51h-51v-51h51zM377 390v51h-51v-51h51zM185 454v51h-51v-51h51zM249 454v51h-51v-51h51zM313 454v51h-51v-51h51zM0 0v576h448v-576h-448z" />
    <glyph glyph-name="colon" unicode=":" 
d="M185 70v51h-51v-51h51zM249 70v51h-51v-51h51zM185 134v51h-51v-51h51zM249 134v51h-51v-51h51zM185 326v51h-51v-51h51zM249 326v51h-51v-51h51zM185 390v51h-51v-51h51zM249 390v51h-51v-51h51zM0 0v576h448v-576h-448z" />
    <glyph glyph-name="semicolon" unicode=";" 
d="M185 70v51h-51v-51h51zM249 134v51h-51v-51h51zM185 198v51h-51v-51h51zM249 198v51h-51v-51h51zM185 326v51h-51v-51h51zM249 326v51h-51v-51h51zM185 390v51h-51v-51h51zM249 390v51h-51v-51h51zM0 0v576h448v-576h-448z" />
    <glyph glyph-name="less" unicode="&#x3c;" 
d="M377 70v51h-51v-51h51zM313 134v51h-51v-51h51zM249 198v51h-51v-51h51zM185 262v51h-51v-51h51zM249 326v51h-51v-51h51zM313 390v51h-51v-51h51zM377 454v51h-51v-51h51zM0 0v576h448v-576h-448z" />
    <glyph glyph-name="equal" unicode="=" 
d="M121 134v51h-51v-51h51zM185 134v51h-51v-51h51zM249 134v51h-51v-51h51zM313 134v51h-51v-51h51zM377 134v51h-51v-51h51zM121 326v51h-51v-51h51zM185 326v51h-51v-51h51zM249 326v51h-51v-51h51zM313 326v51h-51v-51h51zM377 326v51h-51v-51h51zM0 0v576h448v-576
h-448z" />
    <glyph glyph-name="greater" unicode="&#x3e;" 
d="M121 70v51h-51v-51h51zM185 134v51h-51v-51h51zM249 198v51h-51v-51h51zM313 262v51h-51v-51h51zM249 326v51h-51v-51h51zM185 390v51h-51v-51h51zM121 454v51h-51v-51h51zM0 0v576h448v-576h-448z" />
    <glyph glyph-name="question" unicode="?" 
d="M249 70v51h-51v-51h51zM249 198v51h-51v-51h51zM249 262v51h-51v-51h51zM313 262v51h-51v-51h51zM377 326v51h-51v-51h51zM121 390v51h-51v-51h51zM377 390v51h-51v-51h51zM185 454v51h-51v-51h51zM249 454v51h-51v-51h51zM313 454v51h-51v-51h51zM0 0v576h448v-576h-448
z" />
    <glyph glyph-name="at" unicode="@" 
d="M185 70v51h-51v-51h51zM249 70v51h-51v-51h51zM313 70v51h-51v-51h51zM377 70v51h-51v-51h51zM121 134v51h-51v-51h51zM121 198v51h-51v-51h51zM249 198v51h-51v-51h51zM313 198v51h-51v-51h51zM377 198v51h-51v-51h51zM121 262v51h-51v-51h51zM249 262v51h-51v-51h51z
M377 262v51h-51v-51h51zM121 326v51h-51v-51h51zM249 326v51h-51v-51h51zM313 326v51h-51v-51h51zM377 326v51h-51v-51h51zM121 390v51h-51v-51h51zM377 390v51h-51v-51h51zM185 454v51h-51v-51h51zM249 454v51h-51v-51h51zM313 454v51h-51v-51h51zM0 0v576h448v-576h-448z
" />
    <glyph glyph-name="A" unicode="A" 
d="M121 70v51h-51v-51h51zM377 70v51h-51v-51h51zM121 134v51h-51v-51h51zM377 134v51h-51v-51h51zM121 198v51h-51v-51h51zM377 198v51h-51v-51h51zM121 262v51h-51v-51h51zM185 262v51h-51v-51h51zM249 262v51h-51v-51h51zM313 262v51h-51v-51h51zM377 262v51h-51v-51h51z
M121 326v51h-51v-51h51zM377 326v51h-51v-51h51zM185 390v51h-51v-51h51zM313 390v51h-51v-51h51zM249 454v51h-51v-51h51zM0 0v576h448v-576h-448z" />
    <glyph glyph-name="B" unicode="B" 
d="M121 70v51h-51v-51h51zM185 70v51h-51v-51h51zM249 70v51h-51v-51h51zM313 70v51h-51v-51h51zM121 134v51h-51v-51h51zM377 134v51h-51v-51h51zM121 198v51h-51v-51h51zM377 198v51h-51v-51h51zM121 262v51h-51v-51h51zM185 262v51h-51v-51h51zM249 262v51h-51v-51h51z
M313 262v51h-51v-51h51zM121 326v51h-51v-51h51zM377 326v51h-51v-51h51zM121 390v51h-51v-51h51zM377 390v51h-51v-51h51zM121 454v51h-51v-51h51zM185 454v51h-51v-51h51zM249 454v51h-51v-51h51zM313 454v51h-51v-51h51zM0 0v576h448v-576h-448z" />
    <glyph glyph-name="C" unicode="C" 
d="M185 70v51h-51v-51h51zM249 70v51h-51v-51h51zM313 70v51h-51v-51h51zM121 134v51h-51v-51h51zM377 134v51h-51v-51h51zM121 198v51h-51v-51h51zM121 262v51h-51v-51h51zM121 326v51h-51v-51h51zM121 390v51h-51v-51h51zM377 390v51h-51v-51h51zM185 454v51h-51v-51h51z
M249 454v51h-51v-51h51zM313 454v51h-51v-51h51zM0 0v576h448v-576h-448z" />
    <glyph glyph-name="D" unicode="D" 
d="M121 70v51h-51v-51h51zM185 70v51h-51v-51h51zM249 70v51h-51v-51h51zM121 134v51h-51v-51h51zM313 134v51h-51v-51h51zM121 198v51h-51v-51h51zM377 198v51h-51v-51h51zM121 262v51h-51v-51h51zM377 262v51h-51v-51h51zM121 326v51h-51v-51h51zM377 326v51h-51v-51h51z
M121 390v51h-51v-51h51zM313 390v51h-51v-51h51zM121 454v51h-51v-51h51zM185 454v51h-51v-51h51zM249 454v51h-51v-51h51zM0 0v576h448v-576h-448z" />
    <glyph glyph-name="E" unicode="E" 
d="M121 70v51h-51v-51h51zM185 70v51h-51v-51h51zM249 70v51h-51v-51h51zM313 70v51h-51v-51h51zM377 70v51h-51v-51h51zM121 134v51h-51v-51h51zM121 198v51h-51v-51h51zM121 262v51h-51v-51h51zM185 262v51h-51v-51h51zM249 262v51h-51v-51h51zM121 326v51h-51v-51h51z
M121 390v51h-51v-51h51zM121 454v51h-51v-51h51zM185 454v51h-51v-51h51zM249 454v51h-51v-51h51zM313 454v51h-51v-51h51zM377 454v51h-51v-51h51zM0 0v576h448v-576h-448z" />
    <glyph glyph-name="F" unicode="F" 
d="M121 70v51h-51v-51h51zM121 134v51h-51v-51h51zM121 198v51h-51v-51h51zM121 262v51h-51v-51h51zM185 262v51h-51v-51h51zM249 262v51h-51v-51h51zM121 326v51h-51v-51h51zM121 390v51h-51v-51h51zM121 454v51h-51v-51h51zM185 454v51h-51v-51h51zM249 454v51h-51v-51h51
zM313 454v51h-51v-51h51zM377 454v51h-51v-51h51zM0 0v576h448v-576h-448z" />
    <glyph glyph-name="G" unicode="G" 
d="M185 70v51h-51v-51h51zM249 70v51h-51v-51h51zM313 70v51h-51v-51h51zM377 70v51h-51v-51h51zM121 134v51h-51v-51h51zM377 134v51h-51v-51h51zM121 198v51h-51v-51h51zM377 198v51h-51v-51h51zM121 262v51h-51v-51h51zM249 262v51h-51v-51h51zM313 262v51h-51v-51h51z
M377 262v51h-51v-51h51zM121 326v51h-51v-51h51zM121 390v51h-51v-51h51zM377 390v51h-51v-51h51zM185 454v51h-51v-51h51zM249 454v51h-51v-51h51zM313 454v51h-51v-51h51zM0 0v576h448v-576h-448z" />
    <glyph glyph-name="H" unicode="H" 
d="M121 70v51h-51v-51h51zM377 70v51h-51v-51h51zM121 134v51h-51v-51h51zM377 134v51h-51v-51h51zM121 198v51h-51v-51h51zM377 198v51h-51v-51h51zM121 262v51h-51v-51h51zM185 262v51h-51v-51h51zM249 262v51h-51v-51h51zM313 262v51h-51v-51h51zM377 262v51h-51v-51h51z
M121 326v51h-51v-51h51zM377 326v51h-51v-51h51zM121 390v51h-51v-51h51zM377 390v51h-51v-51h51zM121 454v51h-51v-51h51zM377 454v51h-51v-51h51zM0 0v576h448v-576h-448z" />
    <glyph glyph-name="I" unicode="I" 
d="M185 70v51h-51v-51h51zM249 70v51h-51v-51h51zM313 70v51h-51v-51h51zM249 134v51h-51v-51h51zM249 198v51h-51v-51h51zM249 262v51h-51v-51h51zM249 326v51h-51v-51h51zM249 390v51h-51v-51h51zM185 454v51h-51v-51h51zM249 454v51h-51v-51h51zM313 454v51h-51v-51h51z
M0 0v576h448v-576h-448z" />
    <glyph glyph-name="J" unicode="J" 
d="M185 70v51h-51v-51h51zM249 70v51h-51v-51h51zM313 70v51h-51v-51h51zM121 134v51h-51v-51h51zM377 134v51h-51v-51h51zM121 198v51h-51v-51h51zM377 198v51h-51v-51h51zM377 262v51h-51v-51h51zM377 326v51h-51v-51h51zM377 390v51h-51v-51h51zM377 454v51h-51v-51h51z
M0 0v576h448v-576h-448z" />
    <glyph glyph-name="K" unicode="K" 
d="M121 70v51h-51v-51h51zM377 70v51h-51v-51h51zM121 134v51h-51v-51h51zM377 134v51h-51v-51h51zM121 198v51h-51v-51h51zM313 198v51h-51v-51h51zM121 262v51h-51v-51h51zM185 262v51h-51v-51h51zM249 262v51h-51v-51h51zM121 326v51h-51v-51h51zM249 326v51h-51v-51h51z
M121 390v51h-51v-51h51zM313 390v51h-51v-51h51zM121 454v51h-51v-51h51zM377 454v51h-51v-51h51zM0 0v576h448v-576h-448z" />
    <glyph glyph-name="L" unicode="L" 
d="M121 70v51h-51v-51h51zM185 70v51h-51v-51h51zM249 70v51h-51v-51h51zM313 70v51h-51v-51h51zM377 70v51h-51v-51h51zM121 134v51h-51v-51h51zM121 198v51h-51v-51h51zM121 262v51h-51v-51h51zM121 326v51h-51v-51h51zM121 390v51h-51v-51h51zM121 454v51h-51v-51h51z
M0 0v576h448v-576h-448z" />
    <glyph glyph-name="M" unicode="M" 
d="M121 70v51h-51v-51h51zM377 70v51h-51v-51h51zM121 134v51h-51v-51h51zM377 134v51h-51v-51h51zM121 198v51h-51v-51h51zM249 198v51h-51v-51h51zM377 198v51h-51v-51h51zM121 262v51h-51v-51h51zM249 262v51h-51v-51h51zM377 262v51h-51v-51h51zM121 326v51h-51v-51h51z
M249 326v51h-51v-51h51zM377 326v51h-51v-51h51zM121 390v51h-51v-51h51zM185 390v51h-51v-51h51zM313 390v51h-51v-51h51zM377 390v51h-51v-51h51zM121 454v51h-51v-51h51zM377 454v51h-51v-51h51zM0 0v576h448v-576h-448z" />
    <glyph glyph-name="N" unicode="N" 
d="M121 70v51h-51v-51h51zM377 70v51h-51v-51h51zM121 134v51h-51v-51h51zM377 134v51h-51v-51h51zM121 198v51h-51v-51h51zM377 198v51h-51v-51h51zM121 262v51h-51v-51h51zM313 262v51h-51v-51h51zM377 262v51h-51v-51h51zM121 326v51h-51v-51h51zM249 326v51h-51v-51h51z
M377 326v51h-51v-51h51zM121 390v51h-51v-51h51zM185 390v51h-51v-51h51zM377 390v51h-51v-51h51zM121 454v51h-51v-51h51zM377 454v51h-51v-51h51zM0 0v576h448v-576h-448z" />
    <glyph glyph-name="O" unicode="O" 
d="M185 70v51h-51v-51h51zM249 70v51h-51v-51h51zM313 70v51h-51v-51h51zM121 134v51h-51v-51h51zM377 134v51h-51v-51h51zM121 198v51h-51v-51h51zM377 198v51h-51v-51h51zM121 262v51h-51v-51h51zM377 262v51h-51v-51h51zM121 326v51h-51v-51h51zM377 326v51h-51v-51h51z
M121 390v51h-51v-51h51zM377 390v51h-51v-51h51zM185 454v51h-51v-51h51zM249 454v51h-51v-51h51zM313 454v51h-51v-51h51zM0 0v576h448v-576h-448z" />
    <glyph glyph-name="P" unicode="P" 
d="M121 70v51h-51v-51h51zM121 134v51h-51v-51h51zM121 198v51h-51v-51h51zM121 262v51h-51v-51h51zM185 262v51h-51v-51h51zM249 262v51h-51v-51h51zM313 262v51h-51v-51h51zM121 326v51h-51v-51h51zM377 326v51h-51v-51h51zM121 390v51h-51v-51h51zM377 390v51h-51v-51h51
zM121 454v51h-51v-51h51zM185 454v51h-51v-51h51zM249 454v51h-51v-51h51zM313 454v51h-51v-51h51zM0 0v576h448v-576h-448z" />
    <glyph glyph-name="Q" unicode="Q" 
d="M185 70v51h-51v-51h51zM249 70v51h-51v-51h51zM313 70v51h-51v-51h51zM377 70v51h-51v-51h51zM121 134v51h-51v-51h51zM313 134v51h-51v-51h51zM377 134v51h-51v-51h51zM121 198v51h-51v-51h51zM249 198v51h-51v-51h51zM377 198v51h-51v-51h51zM121 262v51h-51v-51h51z
M377 262v51h-51v-51h51zM121 326v51h-51v-51h51zM377 326v51h-51v-51h51zM121 390v51h-51v-51h51zM377 390v51h-51v-51h51zM185 454v51h-51v-51h51zM249 454v51h-51v-51h51zM313 454v51h-51v-51h51zM0 0v576h448v-576h-448z" />
    <glyph glyph-name="R" unicode="R" 
d="M121 70v51h-51v-51h51zM377 70v51h-51v-51h51zM121 134v51h-51v-51h51zM377 134v51h-51v-51h51zM121 198v51h-51v-51h51zM377 198v51h-51v-51h51zM121 262v51h-51v-51h51zM185 262v51h-51v-51h51zM249 262v51h-51v-51h51zM313 262v51h-51v-51h51zM121 326v51h-51v-51h51z
M377 326v51h-51v-51h51zM121 390v51h-51v-51h51zM377 390v51h-51v-51h51zM121 454v51h-51v-51h51zM185 454v51h-51v-51h51zM249 454v51h-51v-51h51zM313 454v51h-51v-51h51zM0 0v576h448v-576h-448z" />
    <glyph glyph-name="S" unicode="S" 
d="M185 70v51h-51v-51h51zM249 70v51h-51v-51h51zM313 70v51h-51v-51h51zM121 134v51h-51v-51h51zM377 134v51h-51v-51h51zM377 198v51h-51v-51h51zM185 262v51h-51v-51h51zM249 262v51h-51v-51h51zM313 262v51h-51v-51h51zM121 326v51h-51v-51h51zM121 390v51h-51v-51h51z
M377 390v51h-51v-51h51zM185 454v51h-51v-51h51zM249 454v51h-51v-51h51zM313 454v51h-51v-51h51zM0 0v576h448v-576h-448z" />
    <glyph glyph-name="T" unicode="T" 
d="M249 70v51h-51v-51h51zM249 134v51h-51v-51h51zM249 198v51h-51v-51h51zM249 262v51h-51v-51h51zM249 326v51h-51v-51h51zM249 390v51h-51v-51h51zM121 454v51h-51v-51h51zM185 454v51h-51v-51h51zM249 454v51h-51v-51h51zM313 454v51h-51v-51h51zM377 454v51h-51v-51h51
zM0 0v576h448v-576h-448z" />
    <glyph glyph-name="U" unicode="U" 
d="M185 70v51h-51v-51h51zM249 70v51h-51v-51h51zM313 70v51h-51v-51h51zM121 134v51h-51v-51h51zM377 134v51h-51v-51h51zM121 198v51h-51v-51h51zM377 198v51h-51v-51h51zM121 262v51h-51v-51h51zM377 262v51h-51v-51h51zM121 326v51h-51v-51h51zM377 326v51h-51v-51h51z
M121 390v51h-51v-51h51zM377 390v51h-51v-51h51zM121 454v51h-51v-51h51zM377 454v51h-51v-51h51zM0 0v576h448v-576h-448z" />
    <glyph glyph-name="V" unicode="V" 
d="M249 70v51h-51v-51h51zM185 134v51h-51v-51h51zM313 134v51h-51v-51h51zM121 198v51h-51v-51h51zM377 198v51h-51v-51h51zM121 262v51h-51v-51h51zM377 262v51h-51v-51h51zM121 326v51h-51v-51h51zM377 326v51h-51v-51h51zM121 390v51h-51v-51h51zM377 390v51h-51v-51h51
zM121 454v51h-51v-51h51zM377 454v51h-51v-51h51zM0 0v576h448v-576h-448z" />
    <glyph glyph-name="W" unicode="W" 
d="M121 70v51h-51v-51h51zM185 70v51h-51v-51h51zM313 70v51h-51v-51h51zM377 70v51h-51v-51h51zM121 134v51h-51v-51h51zM249 134v51h-51v-51h51zM377 134v51h-51v-51h51zM121 198v51h-51v-51h51zM249 198v51h-51v-51h51zM377 198v51h-51v-51h51zM121 262v51h-51v-51h51z
M249 262v51h-51v-51h51zM377 262v51h-51v-51h51zM121 326v51h-51v-51h51zM377 326v51h-51v-51h51zM121 390v51h-51v-51h51zM377 390v51h-51v-51h51zM121 454v51h-51v-51h51zM377 454v51h-51v-51h51zM0 0v576h448v-576h-448z" />
    <glyph glyph-name="X" unicode="X" 
d="M121 70v51h-51v-51h51zM377 70v51h-51v-51h51zM121 134v51h-51v-51h51zM377 134v51h-51v-51h51zM185 198v51h-51v-51h51zM313 198v51h-51v-51h51zM249 262v51h-51v-51h51zM185 326v51h-51v-51h51zM313 326v51h-51v-51h51zM121 390v51h-51v-51h51zM377 390v51h-51v-51h51z
M121 454v51h-51v-51h51zM377 454v51h-51v-51h51zM0 0v576h448v-576h-448z" />
    <glyph glyph-name="Y" unicode="Y" 
d="M249 70v51h-51v-51h51zM249 134v51h-51v-51h51zM249 198v51h-51v-51h51zM249 262v51h-51v-51h51zM185 326v51h-51v-51h51zM313 326v51h-51v-51h51zM121 390v51h-51v-51h51zM377 390v51h-51v-51h51zM121 454v51h-51v-51h51zM377 454v51h-51v-51h51zM0 0v576h448v-576h-448
z" />
    <glyph glyph-name="Z" unicode="Z" 
d="M121 70v51h-51v-51h51zM185 70v51h-51v-51h51zM249 70v51h-51v-51h51zM313 70v51h-51v-51h51zM377 70v51h-51v-51h51zM121 134v51h-51v-51h51zM185 198v51h-51v-51h51zM249 262v51h-51v-51h51zM313 326v51h-51v-51h51zM377 390v51h-51v-51h51zM121 454v51h-51v-51h51z
M185 454v51h-51v-51h51zM249 454v51h-51v-51h51zM313 454v51h-51v-51h51zM377 454v51h-51v-51h51zM0 0v576h448v-576h-448z" />
    <glyph glyph-name="bracketleft" unicode="[" 
d="M249 70v51h-51v-51h51zM313 70v51h-51v-51h51zM377 70v51h-51v-51h51zM249 134v51h-51v-51h51zM249 198v51h-51v-51h51zM249 262v51h-51v-51h51zM249 326v51h-51v-51h51zM249 390v51h-51v-51h51zM249 454v51h-51v-51h51zM313 454v51h-51v-51h51zM377 454v51h-51v-51h51z
M0 0v576h448v-576h-448z" />
    <glyph glyph-name="backslash" unicode="\" 
d="M377 134v51h-51v-51h51zM313 198v51h-51v-51h51zM249 262v51h-51v-51h51zM185 326v51h-51v-51h51zM121 390v51h-51v-51h51zM0 0v576h448v-576h-448z" />
    <glyph glyph-name="bracketright" unicode="]" 
d="M121 70v51h-51v-51h51zM185 70v51h-51v-51h51zM249 70v51h-51v-51h51zM249 134v51h-51v-51h51zM249 198v51h-51v-51h51zM249 262v51h-51v-51h51zM249 326v51h-51v-51h51zM249 390v51h-51v-51h51zM121 454v51h-51v-51h51zM185 454v51h-51v-51h51zM249 454v51h-51v-51h51z
M0 0v576h448v-576h-448z" />
    <glyph glyph-name="asciicircum" unicode="^" 
d="M121 326v51h-51v-51h51zM377 326v51h-51v-51h51zM185 390v51h-51v-51h51zM313 390v51h-51v-51h51zM249 454v51h-51v-51h51zM0 0v576h448v-576h-448z" />
    <glyph glyph-name="underscore" unicode="_" 
d="M121 70v51h-51v-51h51zM185 70v51h-51v-51h51zM249 70v51h-51v-51h51zM313 70v51h-51v-51h51zM377 70v51h-51v-51h51zM0 0v576h448v-576h-448z" />
    <glyph glyph-name="grave" unicode="`" 
d="M249 390v51h-51v-51h51zM185 454v51h-51v-51h51zM0 0v576h448v-576h-448z" />
    <glyph glyph-name="a" unicode="a" 
d="M185 70v51h-51v-51h51zM249 70v51h-51v-51h51zM313 70v51h-51v-51h51zM377 70v51h-51v-51h51zM121 134v51h-51v-51h51zM377 134v51h-51v-51h51zM185 198v51h-51v-51h51zM249 198v51h-51v-51h51zM313 198v51h-51v-51h51zM377 198v51h-51v-51h51zM377 262v51h-51v-51h51z
M185 326v51h-51v-51h51zM249 326v51h-51v-51h51zM313 326v51h-51v-51h51zM0 0v576h448v-576h-448z" />
    <glyph glyph-name="b" unicode="b" 
d="M121 70v51h-51v-51h51zM185 70v51h-51v-51h51zM249 70v51h-51v-51h51zM313 70v51h-51v-51h51zM121 134v51h-51v-51h51zM377 134v51h-51v-51h51zM121 198v51h-51v-51h51zM377 198v51h-51v-51h51zM121 262v51h-51v-51h51zM377 262v51h-51v-51h51zM121 326v51h-51v-51h51z
M185 326v51h-51v-51h51zM249 326v51h-51v-51h51zM313 326v51h-51v-51h51zM121 390v51h-51v-51h51zM121 454v51h-51v-51h51zM0 0v576h448v-576h-448z" />
    <glyph glyph-name="c" unicode="c" 
d="M185 70v51h-51v-51h51zM249 70v51h-51v-51h51zM313 70v51h-51v-51h51zM121 134v51h-51v-51h51zM121 198v51h-51v-51h51zM121 262v51h-51v-51h51zM377 262v51h-51v-51h51zM185 326v51h-51v-51h51zM249 326v51h-51v-51h51zM313 326v51h-51v-51h51zM0 0v576h448v-576h-448z
" />
    <glyph glyph-name="d" unicode="d" 
d="M185 70v51h-51v-51h51zM249 70v51h-51v-51h51zM313 70v51h-51v-51h51zM377 70v51h-51v-51h51zM121 134v51h-51v-51h51zM377 134v51h-51v-51h51zM121 198v51h-51v-51h51zM377 198v51h-51v-51h51zM121 262v51h-51v-51h51zM377 262v51h-51v-51h51zM185 326v51h-51v-51h51z
M249 326v51h-51v-51h51zM313 326v51h-51v-51h51zM377 326v51h-51v-51h51zM377 390v51h-51v-51h51zM377 454v51h-51v-51h51zM0 0v576h448v-576h-448z" />
    <glyph glyph-name="e" unicode="e" 
d="M185 70v51h-51v-51h51zM249 70v51h-51v-51h51zM313 70v51h-51v-51h51zM121 134v51h-51v-51h51zM121 198v51h-51v-51h51zM185 198v51h-51v-51h51zM249 198v51h-51v-51h51zM313 198v51h-51v-51h51zM377 198v51h-51v-51h51zM121 262v51h-51v-51h51zM377 262v51h-51v-51h51z
M185 326v51h-51v-51h51zM249 326v51h-51v-51h51zM313 326v51h-51v-51h51zM0 0v576h448v-576h-448z" />
    <glyph glyph-name="f" unicode="f" 
d="M185 70v51h-51v-51h51zM185 134v51h-51v-51h51zM185 198v51h-51v-51h51zM121 262v51h-51v-51h51zM185 262v51h-51v-51h51zM249 262v51h-51v-51h51zM313 262v51h-51v-51h51zM185 326v51h-51v-51h51zM185 390v51h-51v-51h51zM377 390v51h-51v-51h51zM249 454v51h-51v-51h51
zM313 454v51h-51v-51h51zM0 0v576h448v-576h-448z" />
    <glyph glyph-name="g" unicode="g" 
d="M121 70v51h-51v-51h51zM185 70v51h-51v-51h51zM249 70v51h-51v-51h51zM313 70v51h-51v-51h51zM377 134v51h-51v-51h51zM185 198v51h-51v-51h51zM249 198v51h-51v-51h51zM313 198v51h-51v-51h51zM377 198v51h-51v-51h51zM121 262v51h-51v-51h51zM377 262v51h-51v-51h51z
M185 326v51h-51v-51h51zM249 326v51h-51v-51h51zM313 326v51h-51v-51h51zM0 0v576h448v-576h-448z" />
    <glyph glyph-name="h" unicode="h" 
d="M121 70v51h-51v-51h51zM377 70v51h-51v-51h51zM121 134v51h-51v-51h51zM377 134v51h-51v-51h51zM121 198v51h-51v-51h51zM377 198v51h-51v-51h51zM121 262v51h-51v-51h51zM185 262v51h-51v-51h51zM249 262v51h-51v-51h51zM313 262v51h-51v-51h51zM121 326v51h-51v-51h51z
M121 390v51h-51v-51h51zM121 454v51h-51v-51h51zM0 0v576h448v-576h-448z" />
    <glyph glyph-name="i" unicode="i" 
d="M185 70v51h-51v-51h51zM249 70v51h-51v-51h51zM313 70v51h-51v-51h51zM249 134v51h-51v-51h51zM249 198v51h-51v-51h51zM185 262v51h-51v-51h51zM249 262v51h-51v-51h51zM249 390v51h-51v-51h51zM0 0v576h448v-576h-448z" />
    <glyph glyph-name="j" unicode="j" 
d="M185 70v51h-51v-51h51zM249 70v51h-51v-51h51zM313 70v51h-51v-51h51zM121 134v51h-51v-51h51zM377 134v51h-51v-51h51zM377 198v51h-51v-51h51zM377 262v51h-51v-51h51zM313 326v51h-51v-51h51zM377 326v51h-51v-51h51zM377 454v51h-51v-51h51zM0 0v576h448v-576h-448z
" />
    <glyph glyph-name="k" unicode="k" 
d="M121 70v51h-51v-51h51zM313 70v51h-51v-51h51zM121 134v51h-51v-51h51zM249 134v51h-51v-51h51zM121 198v51h-51v-51h51zM185 198v51h-51v-51h51zM121 262v51h-51v-51h51zM249 262v51h-51v-51h51zM121 326v51h-51v-51h51zM313 326v51h-51v-51h51zM121 390v51h-51v-51h51z
M121 454v51h-51v-51h51zM0 0v576h448v-576h-448z" />
    <glyph glyph-name="l" unicode="l" 
d="M249 70v51h-51v-51h51zM313 70v51h-51v-51h51zM185 134v51h-51v-51h51zM185 198v51h-51v-51h51zM185 262v51h-51v-51h51zM185 326v51h-51v-51h51zM185 390v51h-51v-51h51zM185 454v51h-51v-51h51zM0 0v576h448v-576h-448z" />
    <glyph glyph-name="m" unicode="m" 
d="M121 70v51h-51v-51h51zM377 70v51h-51v-51h51zM121 134v51h-51v-51h51zM249 134v51h-51v-51h51zM377 134v51h-51v-51h51zM121 198v51h-51v-51h51zM249 198v51h-51v-51h51zM377 198v51h-51v-51h51zM121 262v51h-51v-51h51zM249 262v51h-51v-51h51zM377 262v51h-51v-51h51z
M121 326v51h-51v-51h51zM185 326v51h-51v-51h51zM313 326v51h-51v-51h51zM0 0v576h448v-576h-448z" />
    <glyph glyph-name="n" unicode="n" 
d="M121 70v51h-51v-51h51zM377 70v51h-51v-51h51zM121 134v51h-51v-51h51zM377 134v51h-51v-51h51zM121 198v51h-51v-51h51zM377 198v51h-51v-51h51zM121 262v51h-51v-51h51zM377 262v51h-51v-51h51zM121 326v51h-51v-51h51zM185 326v51h-51v-51h51zM249 326v51h-51v-51h51z
M313 326v51h-51v-51h51zM0 0v576h448v-576h-448z" />
    <glyph glyph-name="o" unicode="o" 
d="M185 70v51h-51v-51h51zM249 70v51h-51v-51h51zM313 70v51h-51v-51h51zM121 134v51h-51v-51h51zM377 134v51h-51v-51h51zM121 198v51h-51v-51h51zM377 198v51h-51v-51h51zM121 262v51h-51v-51h51zM377 262v51h-51v-51h51zM185 326v51h-51v-51h51zM249 326v51h-51v-51h51z
M313 326v51h-51v-51h51zM0 0v576h448v-576h-448z" />
    <glyph glyph-name="p" unicode="p" 
d="M121 70v51h-51v-51h51zM121 134v51h-51v-51h51zM121 198v51h-51v-51h51zM185 198v51h-51v-51h51zM249 198v51h-51v-51h51zM313 198v51h-51v-51h51zM121 262v51h-51v-51h51zM377 262v51h-51v-51h51zM121 326v51h-51v-51h51zM185 326v51h-51v-51h51zM249 326v51h-51v-51h51
zM313 326v51h-51v-51h51zM0 0v576h448v-576h-448z" />
    <glyph glyph-name="q" unicode="q" 
d="M313 70v51h-51v-51h51zM377 70v51h-51v-51h51zM313 134v51h-51v-51h51zM185 198v51h-51v-51h51zM249 198v51h-51v-51h51zM313 198v51h-51v-51h51zM121 262v51h-51v-51h51zM313 262v51h-51v-51h51zM185 326v51h-51v-51h51zM249 326v51h-51v-51h51zM313 326v51h-51v-51h51z
M0 0v576h448v-576h-448z" />
    <glyph glyph-name="r" unicode="r" 
d="M121 70v51h-51v-51h51zM121 134v51h-51v-51h51zM121 198v51h-51v-51h51zM121 262v51h-51v-51h51zM377 262v51h-51v-51h51zM121 326v51h-51v-51h51zM185 326v51h-51v-51h51zM249 326v51h-51v-51h51zM313 326v51h-51v-51h51zM0 0v576h448v-576h-448z" />
    <glyph glyph-name="s" unicode="s" 
d="M121 70v51h-51v-51h51zM185 70v51h-51v-51h51zM249 70v51h-51v-51h51zM313 70v51h-51v-51h51zM377 134v51h-51v-51h51zM185 198v51h-51v-51h51zM249 198v51h-51v-51h51zM313 198v51h-51v-51h51zM121 262v51h-51v-51h51zM185 326v51h-51v-51h51zM249 326v51h-51v-51h51z
M313 326v51h-51v-51h51zM377 326v51h-51v-51h51zM0 0v576h448v-576h-448z" />
    <glyph glyph-name="t" unicode="t" 
d="M249 70v51h-51v-51h51zM313 70v51h-51v-51h51zM377 70v51h-51v-51h51zM249 134v51h-51v-51h51zM249 198v51h-51v-51h51zM249 262v51h-51v-51h51zM121 326v51h-51v-51h51zM185 326v51h-51v-51h51zM249 326v51h-51v-51h51zM313 326v51h-51v-51h51zM377 326v51h-51v-51h51z
M249 390v51h-51v-51h51zM249 454v51h-51v-51h51zM0 0v576h448v-576h-448z" />
    <glyph glyph-name="u" unicode="u" 
d="M185 70v51h-51v-51h51zM249 70v51h-51v-51h51zM313 70v51h-51v-51h51zM377 70v51h-51v-51h51zM121 134v51h-51v-51h51zM377 134v51h-51v-51h51zM121 198v51h-51v-51h51zM377 198v51h-51v-51h51zM121 262v51h-51v-51h51zM377 262v51h-51v-51h51zM121 326v51h-51v-51h51z
M377 326v51h-51v-51h51zM0 0v576h448v-576h-448z" />
    <glyph glyph-name="v" unicode="v" 
d="M249 70v51h-51v-51h51zM185 134v51h-51v-51h51zM313 134v51h-51v-51h51zM121 198v51h-51v-51h51zM377 198v51h-51v-51h51zM121 262v51h-51v-51h51zM377 262v51h-51v-51h51zM121 326v51h-51v-51h51zM377 326v51h-51v-51h51zM0 0v576h448v-576h-448z" />
    <glyph glyph-name="w" unicode="w" 
d="M121 70v51h-51v-51h51zM185 70v51h-51v-51h51zM313 70v51h-51v-51h51zM377 70v51h-51v-51h51zM121 134v51h-51v-51h51zM249 134v51h-51v-51h51zM377 134v51h-51v-51h51zM121 198v51h-51v-51h51zM249 198v51h-51v-51h51zM377 198v51h-51v-51h51zM121 262v51h-51v-51h51z
M249 262v51h-51v-51h51zM377 262v51h-51v-51h51zM121 326v51h-51v-51h51zM377 326v51h-51v-51h51zM0 0v576h448v-576h-448z" />
    <glyph glyph-name="x" unicode="x" 
d="M121 70v51h-51v-51h51zM377 70v51h-51v-51h51zM185 134v51h-51v-51h51zM313 134v51h-51v-51h51zM249 198v51h-51v-51h51zM185 262v51h-51v-51h51zM313 262v51h-51v-51h51zM121 326v51h-51v-51h51zM377 326v51h-51v-51h51zM0 0v576h448v-576h-448z" />
    <glyph glyph-name="y" unicode="y" 
d="M185 70v51h-51v-51h51zM249 70v51h-51v-51h51zM313 70v51h-51v-51h51zM377 134v51h-51v-51h51zM185 198v51h-51v-51h51zM249 198v51h-51v-51h51zM313 198v51h-51v-51h51zM377 198v51h-51v-51h51zM121 262v51h-51v-51h51zM377 262v51h-51v-51h51zM121 326v51h-51v-51h51z
M377 326v51h-51v-51h51zM0 0v576h448v-576h-448z" />
    <glyph glyph-name="z" unicode="z" 
d="M121 70v51h-51v-51h51zM185 70v51h-51v-51h51zM249 70v51h-51v-51h51zM313 70v51h-51v-51h51zM377 70v51h-51v-51h51zM185 134v51h-51v-51h51zM249 198v51h-51v-51h51zM313 262v51h-51v-51h51zM121 326v51h-51v-51h51zM185 326v51h-51v-51h51zM249 326v51h-51v-51h51z
M313 326v51h-51v-51h51zM377 326v51h-51v-51h51zM0 0v576h448v-576h-448z" />
    <glyph glyph-name="braceleft" unicode="{" 
d="M377 70v51h-51v-51h51zM313 134v51h-51v-51h51zM313 198v51h-51v-51h51zM249 262v51h-51v-51h51zM313 326v51h-51v-51h51zM313 390v51h-51v-51h51zM377 454v51h-51v-51h51zM0 0v576h448v-576h-448z" />
    <glyph glyph-name="bar" unicode="|" 
d="M249 134v51h-51v-51h51zM249 198v51h-51v-51h51zM249 262v51h-51v-51h51zM249 326v51h-51v-51h51zM249 390v51h-51v-51h51zM0 0v576h448v-576h-448z" />
    <glyph glyph-name="braceright" unicode="}" 
d="M121 70v51h-51v-51h51zM185 134v51h-51v-51h51zM185 198v51h-51v-51h51zM249 262v51h-51v-51h51zM185 326v51h-51v-51h51zM185 390v51h-51v-51h51zM121 454v51h-51v-51h51zM0 0v576h448v-576h-448z" />
    <glyph glyph-name="asciitilde" unicode="~" 
d="M313 198v51h-51v-51h51zM121 262v51h-51v-51h51zM249 262v51h-51v-51h51zM377 262v51h-51v-51h51zM185 326v51h-51v-51h51zM0 0v576h448v-576h-448z" />
    <glyph glyph-name="quoteleft" unicode="&#x2018;" 
d="M377 390v51h-51v-51h51zM377 454v51h-51v-51h51zM0 0v576h448v-576h-448z" />
    <glyph glyph-name="quoteright" unicode="&#x2019;" 
d="M121 390v51h-51v-51h51zM121 454v51h-51v-51h51zM0 0v576h448v-576h-448z" />
    <glyph glyph-name="quotedblleft" unicode="&#x201c;" 
d="M249 390v51h-51v-51h51zM377 390v51h-51v-51h51zM249 454v51h-51v-51h51zM377 454v51h-51v-51h51zM0 0v576h448v-576h-448z" />
    <glyph glyph-name="quotedblright" unicode="&#x201d;" 
d="M121 390v51h-51v-51h51zM249 390v51h-51v-51h51zM121 454v51h-51v-51h51zM249 454v51h-51v-51h51zM0 0v576h448v-576h-448z" />
  </font>
</defs>
</svg>
