<svg width="431" height="166" xmlns="http://www.w3.org/2000/svg" style="">
 <metadata id="metadata35">image/svg+xml</metadata>

 <g>
  <title>background</title>
  <path fill="none" id="canvas_background" height="168" width="433" d="M-1 -1 L432 -1 L432 167 L-1 167 Z" class="RaoSvraZ_0"></path>
 </g>
 <g transform="matrix(2.4014204,0,0,2.4014204,.40382,50.245087)" style="fill:#161413;fill-rule:evenodd;stroke:none;stroke-width:1;stroke-linecap:butt;stroke-linejoin:miter;stroke-dasharray:none" id="g8">
   <path d="M 173.567,0 C 174.32,1.7207 174.699,3.5528 174.656,5.4932 C 174.236,24.4158 134.536,46.4368 86.2803,54.5138 C 41.6739,61.9798 4.9668,54.9858 0,38.9388 C 6.5948,54.0028 42.4551,60.3878 85.7647,53.1378 C 134.02,45.0608 173.721,23.0398 174.139,4.1172 C 174.172,2.6856 173.973,1.3135 173.567,0 z" id="path10" class="RaoSvraZ_1"></path>
 </g>
 <g>
  <title>Layer 1</title>
    <g transform="matrix(2.4014204,0,0,2.4014204, -3.02461,-6.5516276)" style="fill:#fcd720;fill-rule:evenodd;stroke:none;stroke-width:1;stroke-linecap:butt;stroke-linejoin:miter;stroke-dasharray:none" id="g12">
    <path d="M 88.795,8.0771 C 137.052,0 176.067,8.8457 175.647,27.7685 C 175.229,46.6911 135.528,68.7131 87.2715,76.7891 C 39.0157,84.8661 0,76.0201 0.41895,57.0981 C 0.83887,38.1748 40.5391,16.1533 88.795,8.0771 z" id="path14" class="RaoSvraZ_2"></path>
  </g>
  <g stroke="#888" stroke-width="1" id="g16" transform="matrix(2.4014204,0,0,2.4014204,49.878455,15.570017) ">
   <path stroke="#444" stroke-width="1" id="path18" d="m54.066964,0.41642c0,0 -6.2471,11.1806 -6.2471,11.1806c0,0 -0.3369,-0.6992 -0.3369,-0.6992c0,0 5.8554,-10.4814 5.8554,-10.4814c0,0 0.7286,0 0.7286,0z" class="RaoSvraZ_3"></path>
  </g>
  <g stroke="#e30922" stroke-width="1" id="g20" transform="matrix(2.4014204,0,0,2.4014204,36.909824,13.91904) ">
   <path fill="#e30922" stroke="#e30922" id="path22" d="m59.123564,0.41642c0,0 -6.2471,11.1806 -6.2471,11.1806c0,0 -5.3935,-11.1806 -5.3935,-11.1806c0,0 11.6406,0 11.6406,0z" class="RaoSvraZ_4"></path>
  </g>
  <g stroke="#161413" stroke-width="0" id="g24" transform="matrix(2.4014204,0,0,2.4014204,-89.767503,11.85526) ">
   <path stroke="#444" stroke-width="1" id="path26" d="m100.718364,17.39982c0,0 7.498,0 7.498,0c0,0 -5.0742,39.1847 -5.0742,39.1847c0,0 2.7109,0 2.7109,0c0,0 -0.2607,2.011 -0.2607,2.011c0,0 -10.209,0 -10.209,0c0,0 0.2598,-2.011 0.2598,-2.011c0,0 2.7109,0 2.7109,0c0,0 4.8145,-37.174 4.8145,-37.174c0,0 -2.711,0 -2.711,0c0,0 0.2608,-2.0107 0.2608,-2.0107zm68.5496,26.4497c-0.992,4.832 -2.45,8.614 -4.367,11.336c-2.142,3.042 -4.701,4.556 -7.679,4.556c-3.337,0 -5.845,-2.092 -7.515,-6.29c-1.669,-4.198 -2.077,-9.54 -1.235,-16.0087c0.837,-6.4287 2.63,-11.7149 5.377,-15.8584c2.747,-4.1426 5.78,-6.208 9.099,-6.208c3.098,0 5.302,1.542 6.619,4.6386c1.318,3.084 1.62,7.4063 0.899,12.9395c0,0 -0.152,1.1709 -0.152,1.1709c0,0 -16.071,0 -16.071,0c-0.041,0.3164 -0.123,0.8808 -0.244,1.6787c-0.119,0.7852 -0.211,1.418 -0.269,1.8721c-0.848,6.5103 -0.898,11.4253 -0.14,14.7433c0.757,3.317 2.294,4.982 4.613,4.982c2.243,0 4.249,-1.348 6.019,-4.033c1.552,-2.363 2.763,-5.53 3.628,-9.519c0.2,-1.671 1.719,-1.421 1.418,0zm-14.581,-11.8169c0,0 10.632,0.041 10.632,0.041c0.093,-0.5918 0.183,-1.1562 0.26,-1.6797c0.077,-0.5224 0.14,-1.0048 0.2,-1.4726c0.519,-3.9785 0.519,-6.9375 -0.005,-8.8926c-0.526,-1.9404 -1.571,-2.918 -3.146,-2.918c-1.788,0 -3.379,1.3077 -4.761,3.9092c-1.384,2.6152 -2.444,6.2774 -3.18,11.0127zm-57.8309,11.8169c-0.9922,4.832 -2.4502,8.614 -4.3672,11.336c-2.1416,3.042 -4.7002,4.556 -7.6787,4.556c-3.337,0 -5.8448,-2.092 -7.5147,-6.29c-1.6699,-4.198 -2.0781,-9.54 -1.2353,-16.0087c0.8378,-6.4287 2.6298,-11.7149 5.3769,-15.8584c2.7471,-4.1426 5.7803,-6.208 9.0996,-6.208c3.0977,0 5.3018,1.542 6.6182,4.6386c1.3183,3.084 1.6201,7.4063 0.8994,12.9395c0,0 -0.1523,1.1709 -0.1523,1.1709c0,0 -16.0704,0 -16.0704,0c-0.041,0.3164 -0.123,0.8808 -0.2441,1.6787c-0.1191,0.7852 -0.2109,1.418 -0.2695,1.8721c-0.8477,6.5103 -0.8975,11.4253 -0.1397,14.7433c0.7569,3.317 2.294,4.982 4.6133,4.982c2.2412,0 4.249,-1.348 6.0186,-4.033c1.5527,-2.363 2.7627,-5.53 3.6279,-9.519c0.1992,-1.671 1.7187,-1.421 1.418,0zm-14.5801,-11.8169c0,0 10.6299,0.041 10.6299,0.041c0.0947,-0.5918 0.1845,-1.1562 0.2617,-1.6797c0.0771,-0.5224 0.1396,-1.0048 0.2002,-1.4726c0.5185,-3.9785 0.5195,-6.9375 -0.0049,-8.8926c-0.5264,-1.9404 -1.5713,-2.918 -3.1455,-2.918c-1.7891,0 -3.3799,1.3077 -4.7627,3.9092c-1.3838,2.6152 -2.4424,6.2774 -3.1787,11.0127zm-31.4385,6.5537c0.002,0.1084 0.0049,0.2862 0.0195,0.5572c0.6358,13.184 2.835,19.665 6.6045,19.458c2.5157,-0.138 4.7471,-1.462 6.7129,-3.985c1.957,-2.522 3.169,-5.591 3.6377,-9.218c0.3184,-2.459 0.1045,-4.52 -0.6426,-6.157c-0.7558,-1.6366 -2.623,-3.5253 -5.6084,-5.6796c-4.4521,-3.166 -7.205,-5.8779 -8.2529,-8.1123c-1.0478,-2.248 -1.3506,-5.1094 -0.9033,-8.5713c0.5859,-4.5342 2.2305,-8.2812 4.9433,-11.2539c2.7051,-2.9736 5.9737,-4.5723 9.793,-4.7822c1.4912,-0.0821 2.9619,0.123 4.4141,0.6025c1.4599,0.4785 2.8769,1.2324 4.2558,2.2754c-0.6777,5.2481 -1.3554,10.4961 -2.0332,15.7451c-0.0713,1.2237 -1.1035,1.1895 -1.1181,0.0616c-0.0303,-0.4209 -0.0635,-1.0059 -0.1192,-1.753c-0.6201,-10.3066 -2.7422,-15.3594 -6.3681,-15.1592c-2.4141,0.1329 -4.5254,1.1768 -6.3438,3.1455c-1.8105,1.9688 -2.9033,4.375 -3.2705,7.2188c-0.5674,4.3965 1.833,8.4658 7.2139,12.1943c0.248,0.1631 0.416,0.2901 0.5244,0.3672c4.1162,2.8418 6.6953,5.4004 7.7265,7.7041c1.0313,2.3028 1.3184,5.2198 0.8614,8.765c-0.6485,5.014 -2.4883,9.304 -5.5127,12.854c-3.0322,3.55 -6.5127,5.433 -10.4522,5.651c-2.1513,0.118 -4.082,-0.24 -5.7968,-1.086c-1.7178,-0.833 -2.9297,-1.995 -3.6397,-3.469c0.7451,-5.771 1.4912,-11.541 2.2363,-17.3117c0.0791,-0.9189 1.0498,-0.9209 1.1182,-0.0615zm144.4265,-19.999c-1.919,0 -3.536,1.6328 -4.86,4.8848c-1.316,3.2519 -2.409,8.2988 -3.276,15.1123c-0.811,6.3831 -0.962,11.1051 -0.452,14.1821c0.52,3.063 1.718,4.6 3.603,4.6c1.844,0 3.415,-1.578 4.708,-4.722c1.293,-3.143 2.357,-7.961 3.183,-14.4517c0.886,-6.9619 1.097,-11.9688 0.641,-15.0176c-0.463,-3.0635 -1.637,-4.5879 -3.547,-4.5879zm4.202,-14.1543c0,0 0.257,-2.0107 0.257,-2.0107c0,0 7.541,0 7.541,0c0,0 -6.883,54.0822 -6.883,54.0822c0,0 2.836,0 2.836,0c0,0 -0.267,2.091 -0.267,2.091c0,0 -7.114,0 -7.114,0c0,0 1.062,-8.339 1.062,-8.339c-0.902,3.212 -1.993,5.599 -3.272,7.151c-1.279,1.552 -2.789,2.335 -4.534,2.335c-2.902,0 -5.012,-1.971 -6.345,-5.924c-1.325,-3.953 -1.587,-9.108 -0.778,-15.4636c0.806,-6.3281 2.433,-11.5772 4.875,-15.7598c2.439,-4.1699 5.1,-6.2617 7.96,-6.2617c1.558,0 2.761,0.6611 3.627,1.9707c0.864,1.3223 1.389,3.3193 1.558,5.9775c0,0 2.527,-19.8486 2.527,-19.8486c0,0 -3.05,0 -3.05,0zm-24.167,-2.0107c0,0 7.393,0 7.393,0c0,0 -6.915,54.1622 -6.915,54.1622c0,0 2.87,0 2.87,0c0,0 -0.257,2.011 -0.257,2.011c0,0 -10.262,0 -10.262,0c0,0 0.256,-2.011 0.256,-2.011c0,0 2.673,0 2.673,0c0,0 6.658,-52.1515 6.658,-52.1515c0,0 -2.673,0 -2.673,0c0,0 0.257,-2.0107 0.257,-2.0107zm-29.6146,56.1732c0,0 -12.419,0 -12.419,0c0,0 0.29,-2.123 0.29,-2.123c0,0 3.16,0 3.16,0c0,0 5.142,-37.6499 5.142,-37.6499c0,0 -2.533,0 -2.533,0c0,0 0.279,-2.04 0.279,-2.04c0,0 2.533,0 2.533,0c0,0 0.317,-2.3281 0.317,-2.3281c0.636,-4.6572 1.739,-8.1494 3.301,-10.5049c1.571,-2.3555 3.5886,-3.5332 6.0706,-3.5332c0.83,0 1.642,0.1367 2.424,0.4248c0.784,0.2734 1.546,0.7119 2.304,1.3008c-0.463,3.3965 -0.928,6.793 -1.391,10.1894c-0.103,1.1514 -1.568,1.0557 -1.642,0c-0.346,-4.4648 -0.675,-7.2861 -0.98,-8.4502c-0.305,-1.164 -0.736,-1.7392 -1.29,-1.7392c-0.731,0 -1.315,0.5478 -1.76,1.6435c-0.435,1.0957 -0.907,3.5059 -1.414,7.2168c0,0 -0.7886,5.7803 -0.7886,5.7803c0,0 6.0436,0 6.0436,0c0,0 -0.279,2.04 -0.279,2.04c0,0 -6.0436,0 -6.0436,0c0,0 -5.142,37.6499 -5.142,37.6499c0,0 4.107,0 4.107,0c0,0 -0.289,2.123 -0.289,2.123zm-38.1584,0c0,0 0.2685,-2.011 0.2685,-2.011c0,0 2.7393,0 2.7393,0c0,0 4.958,-37.174 4.958,-37.174c0,0 -2.7402,0 -2.7402,0c0,0 0.2685,-2.0107 0.2685,-2.0107c0,0 7.2227,0 7.2227,0c0,0 -0.9268,6.9492 -0.9268,6.9492c0.8067,-2.4424 1.9717,-4.4121 3.4815,-5.8838c1.5185,-1.4707 3.1211,-2.2129 4.8125,-2.2129c2.6204,0 4.3244,1.0664 5.1144,3.1983c0.787,2.1455 0.747,6.4365 -0.113,12.8867c0,0 -3.234,24.2472 -3.234,24.2472c0,0 2.74,0 2.74,0c0,0 -0.268,2.011 -0.268,2.011c0,0 -10.1603,0 -10.1603,0c0,0 0.2685,-2.011 0.2685,-2.011c0,0 2.791,0 2.791,0c0,0 3.3272,-24.9494 3.3272,-24.9494c0.7516,-5.6396 0.9546,-9.2294 0.6006,-10.7539c-0.346,-1.5244 -1.2227,-2.2939 -2.6309,-2.2939c-1.7441,0 -3.3291,1.3896 -4.7461,4.1562c-1.417,2.7657 -2.4385,6.504 -3.0683,11.2256c0,0 -3.0157,22.6154 -3.0157,22.6154c0,0 2.7393,0 2.7393,0c0,0 -0.2676,2.011 -0.2676,2.011c0,0 -10.1611,0 -10.1611,0z" class="RaoSvraZ_5"></path>
  </g>
  <g stroke="#e30922" stroke-width="0" id="g28" transform="matrix(2.4014204,0,0,2.4014204,-91.005676,10.201882) ">
   <path fill="#e30922" stroke="#d30922" stroke-width="1" id="path30" d="m100.718264,16.9844c0,0 7.4981,0 7.4981,0c0,0 -5.0742,39.1842 -5.0742,39.1842c0,0 2.7109,0 2.7109,0c0,0 -0.2607,2.011 -0.2607,2.011c0,0 -10.21,0 -10.21,0c0,0 0.2607,-2.011 0.2607,-2.011c0,0 2.711,0 2.711,0c0,0 4.8144,-37.1735 4.8144,-37.1735c0,0 -2.7109,0 -2.7109,0c0,0 0.2607,-2.0107 0.2607,-2.0107zm68.5497,26.4502c-0.992,4.83 -2.45,8.612 -4.367,11.335c-2.142,3.043 -4.701,4.557 -7.679,4.557c-3.337,0 -5.844,-2.093 -7.514,-6.291c-1.67,-4.199 -2.079,-9.539 -1.236,-16.0092c0.837,-6.4287 2.629,-11.7139 5.377,-15.8574c2.747,-4.1436 5.78,-6.208 9.1,-6.208c3.097,0 5.302,1.541 6.618,4.6386c1.318,3.084 1.619,7.4063 0.898,12.9395c0,0 -0.152,1.1699 -0.152,1.1699c0,0 -16.069,0 -16.069,0c-0.041,0.3174 -0.124,0.8809 -0.244,1.6797c-0.121,0.7842 -0.211,1.418 -0.27,1.8721c-0.849,6.5108 -0.897,11.4248 -0.141,14.7418c0.757,3.318 2.295,4.984 4.615,4.984c2.241,0 4.248,-1.349 6.018,-4.034c1.552,-2.364 2.762,-5.531 3.627,-9.518c0.2,-1.672 1.72,-1.422 1.419,0zm-14.581,-11.8184c0,0 10.631,0.042 10.631,0.042c0.095,-0.5918 0.185,-1.1562 0.262,-1.6797c0.076,-0.5224 0.138,-1.0048 0.2,-1.4726c0.517,-3.9785 0.518,-6.9375 -0.006,-8.8926c-0.525,-1.9404 -1.571,-2.918 -3.146,-2.918c-1.788,0 -3.378,1.3077 -4.761,3.9092c-1.385,2.6152 -2.444,6.2764 -3.18,11.0117zm-57.831,11.8184c-0.9922,4.83 -2.4502,8.612 -4.3672,11.335c-2.1416,3.043 -4.7002,4.557 -7.6787,4.557c-3.3369,0 -5.8447,-2.093 -7.5146,-6.291c-1.6699,-4.199 -2.0781,-9.539 -1.2354,-16.0092c0.8369,-6.4287 2.6299,-11.7139 5.377,-15.8574c2.7471,-4.1436 5.7803,-6.208 9.0996,-6.208c3.0977,0 5.3018,1.541 6.6182,4.6386c1.3183,3.084 1.6191,7.4063 0.8984,12.9395c0,0 -0.1523,1.1699 -0.1523,1.1699c0,0 -16.0694,0 -16.0694,0c-0.041,0.3174 -0.123,0.8809 -0.2441,1.6797c-0.1192,0.7842 -0.211,1.418 -0.2696,1.8721c-0.8476,6.5108 -0.8974,11.4248 -0.1406,14.7418c0.7578,3.318 2.2949,4.984 4.6143,4.984c2.2412,0 4.248,-1.349 6.0185,-4.034c1.5518,-2.364 2.7618,-5.531 3.627,-9.518c0.2002,-1.672 1.7197,-1.422 1.4189,0zm-14.58,-11.8184c0,0 10.6298,0.042 10.6298,0.042c0.0948,-0.5918 0.1846,-1.1562 0.2618,-1.6797c0.0761,-0.5224 0.1396,-1.0048 0.2002,-1.4726c0.5185,-3.9785 0.5185,-6.9375 -0.0059,-8.8926c-0.5254,-1.9404 -1.5703,-2.918 -3.1455,-2.918c-1.7881,0 -3.3789,1.3077 -4.7617,3.9092c-1.3838,2.6152 -2.4434,6.2764 -3.1787,11.0117zm-31.4395,6.5547c0.0029,0.1084 0.0049,0.2852 0.0205,0.5576c0.6358,13.1841 2.834,19.6651 6.6035,19.4571c2.5166,-0.139 4.7471,-1.462 6.7139,-3.984c1.957,-2.523 3.1689,-5.591 3.6377,-9.218c0.3174,-2.459 0.1045,-4.522 -0.6426,-6.1584c-0.7568,-1.6357 -2.623,-3.5244 -5.6084,-5.6797c-4.4521,-3.165 -7.2051,-5.8779 -8.2539,-8.1113c-1.0469,-2.248 -1.3496,-5.1094 -0.9033,-8.5723c0.5859,-4.5341 2.2305,-8.2802 4.9443,-11.2539c2.7051,-2.9726 5.9727,-4.5713 9.793,-4.7822c1.4912,-0.082 2.9619,0.124 4.4141,0.6035c1.4599,0.4785 2.8759,1.2324 4.2558,2.2754c-0.6777,5.2481 -1.3564,10.4961 -2.0342,15.7451c-0.0703,1.2227 -1.1025,1.1885 -1.1181,0.0616c-0.0293,-0.4219 -0.0635,-1.0069 -0.1182,-1.753c-0.6201,-10.3066 -2.7422,-15.3603 -6.3682,-15.1601c-2.414,0.1328 -4.5254,1.1767 -6.3437,3.1464c-1.8106,1.9678 -2.9033,4.375 -3.2705,7.2188c-0.5684,4.3965 1.833,8.4658 7.2138,12.1943c0.2481,0.1631 0.4161,0.2901 0.5245,0.3662c4.1152,2.8428 6.6953,5.4014 7.7265,7.7051c1.0313,2.3028 1.3184,5.2198 0.8604,8.7645c-0.6475,5.015 -2.4883,9.304 -5.5117,12.854c-3.0323,3.55 -6.5127,5.433 -10.4522,5.651c-2.1514,0.118 -4.082,-0.239 -5.7969,-1.086c-1.7177,-0.833 -2.9306,-1.994 -3.6396,-3.47c0.7451,-5.769 1.4902,-11.541 2.2353,-17.3102c0.0801,-0.9189 1.0508,-0.9218 1.1182,-0.0615zm144.4265,-19.999c-1.918,0 -3.535,1.6318 -4.858,4.8848c-1.317,3.2509 -2.409,8.2978 -3.277,15.1123c-0.812,6.3816 -0.961,11.1046 -0.452,14.1816c0.52,3.063 1.718,4.601 3.604,4.601c1.844,0 3.413,-1.579 4.707,-4.723c1.293,-3.144 2.357,-7.961 3.183,-14.4512c0.886,-6.9629 1.097,-11.9688 0.641,-15.0186c-0.463,-3.0625 -1.638,-4.5869 -3.548,-4.5869zm4.203,-14.1553c0,0 0.257,-2.0107 0.257,-2.0107c0,0 7.541,0 7.541,0c0,0 -6.884,54.0817 -6.884,54.0817c0,0 2.837,0 2.837,0c0,0 -0.266,2.092 -0.266,2.092c0,0 -7.115,0 -7.115,0c0,0 1.062,-8.339 1.062,-8.339c-0.901,3.211 -1.992,5.6 -3.271,7.152c-1.28,1.551 -2.79,2.334 -4.536,2.334c-2.901,0 -5.011,-1.97 -6.344,-5.923c-1.325,-3.954 -1.587,-9.109 -0.778,-15.4641c0.805,-6.3281 2.432,-11.5772 4.875,-15.7608c2.44,-4.1689 5.1,-6.2607 7.96,-6.2607c1.558,0 2.761,0.6611 3.627,1.9697c0.864,1.3223 1.389,3.3203 1.559,5.9785c0,0 2.526,-19.8496 2.526,-19.8496c0,0 -3.05,0 -3.05,0zm-24.167,-2.0107c0,0 7.393,0 7.393,0c0,0 -6.915,54.1627 -6.915,54.1627c0,0 2.869,0 2.869,0c0,0 -0.256,2.011 -0.256,2.011c0,0 -10.262,0 -10.262,0c0,0 0.256,-2.011 0.256,-2.011c0,0 2.673,0 2.673,0c0,0 6.658,-52.152 6.658,-52.152c0,0 -2.672,0 -2.672,0c0,0 0.256,-2.0107 0.256,-2.0107zm-29.616,56.1737c0,0 -12.418,0 -12.418,0c0,0 0.289,-2.123 0.289,-2.123c0,0 3.16,0 3.16,0c0,0 5.143,-37.6494 5.143,-37.6494c0,0 -2.533,0 -2.533,0c0,0 0.279,-2.041 0.279,-2.041c0,0 2.532,0 2.532,0c0,0 0.319,-2.3281 0.319,-2.3281c0.635,-4.6562 1.737,-8.1484 3.3,-10.5039c1.572,-2.3564 3.589,-3.5342 6.072,-3.5342c0.83,0 1.641,0.1377 2.424,0.4248c0.784,0.2744 1.545,0.7129 2.303,1.3008c-0.464,3.3965 -0.927,6.794 -1.39,10.1895c-0.104,1.1513 -1.57,1.0566 -1.644,0c-0.346,-4.4639 -0.674,-7.2862 -0.979,-8.4493c-0.305,-1.165 -0.737,-1.7402 -1.289,-1.7402c-0.733,0 -1.316,0.5488 -1.76,1.6436c-0.436,1.0957 -0.908,3.5058 -1.414,7.2177c0,0 -0.79,5.7793 -0.79,5.7793c0,0 6.044,0 6.044,0c0,0 -0.279,2.041 -0.279,2.041c0,0 -6.044,0 -6.044,0c0,0 -5.141,37.6494 -5.141,37.6494c0,0 4.106,0 4.106,0c0,0 -0.29,2.123 -0.29,2.123zm-38.157,0c0,0 0.2685,-2.011 0.2685,-2.011c0,0 2.7393,0 2.7393,0c0,0 4.958,-37.1735 4.958,-37.1735c0,0 -2.7403,0 -2.7403,0c0,0 0.2676,-2.0107 0.2676,-2.0107c0,0 7.2237,0 7.2237,0c0,0 -0.9268,6.9492 -0.9268,6.9492c0.8066,-2.4433 1.9707,-4.4131 3.4814,-5.8838c1.5186,-1.4707 3.1202,-2.2129 4.8125,-2.2129c2.6191,0 4.3241,1.0664 5.1131,3.1983c0.788,2.1455 0.748,6.4365 -0.112,12.8857c0,0 -3.233,24.2477 -3.233,24.2477c0,0 2.74,0 2.74,0c0,0 -0.269,2.011 -0.269,2.011c0,0 -10.16,0 -10.16,0c0,0 0.2676,-2.011 0.2676,-2.011c0,0 2.792,0 2.792,0c0,0 3.3262,-24.9489 3.3262,-24.9489c0.7522,-5.6406 0.9562,-9.2294 0.6015,-10.7539c-0.3466,-1.5253 -1.2226,-2.2939 -2.6318,-2.2939c-1.7432,0 -3.3281,1.3896 -4.7451,4.1553c-1.417,2.7666 -2.4395,6.5039 -3.0693,11.2265c0,0 -3.0157,22.6149 -3.0157,22.6149c0,0 2.7403,0 2.7403,0c0,0 -0.2686,2.011 -0.2686,2.011c0,0 -10.1601,0 -10.1601,0z" class="RaoSvraZ_6"></path>
  </g>
 </g>
<style data-made-with="vivus-instant">.RaoSvraZ_0{stroke-dasharray:1202 1204;stroke-dashoffset:1203;animation:RaoSvraZ_draw_0 10000ms ease-in 0ms infinite,RaoSvraZ_fade 10000ms linear 0ms infinite;}.RaoSvraZ_1{stroke-dasharray:406 408;stroke-dashoffset:407;animation:RaoSvraZ_draw_1 10000ms ease-in 0ms infinite,RaoSvraZ_fade 10000ms linear 0ms infinite;}.RaoSvraZ_2{stroke-dasharray:406 408;stroke-dashoffset:407;animation:RaoSvraZ_draw_2 10000ms ease-in 0ms infinite,RaoSvraZ_fade 10000ms linear 0ms infinite;}.RaoSvraZ_3{stroke-dasharray:27 29;stroke-dashoffset:28;animation:RaoSvraZ_draw_3 10000ms ease-in 0ms infinite,RaoSvraZ_fade 10000ms linear 0ms infinite;}.RaoSvraZ_4{stroke-dasharray:37 39;stroke-dashoffset:38;animation:RaoSvraZ_draw_4 10000ms ease-in 0ms infinite,RaoSvraZ_fade 10000ms linear 0ms infinite;}.RaoSvraZ_5{stroke-dasharray:1608 1610;stroke-dashoffset:1609;animation:RaoSvraZ_draw_5 10000ms ease-in 0ms infinite,RaoSvraZ_fade 10000ms linear 0ms infinite;}.RaoSvraZ_6{stroke-dasharray:1608 1610;stroke-dashoffset:1609;animation:RaoSvraZ_draw_6 10000ms ease-in 0ms infinite,RaoSvraZ_fade 10000ms linear 0ms infinite;}@keyframes RaoSvraZ_draw{100%{stroke-dashoffset:0;}}@keyframes RaoSvraZ_fade{0%{stroke-opacity:1;}80%{stroke-opacity:1;}100%{stroke-opacity:0;}}@keyframes RaoSvraZ_draw_0{0%{stroke-dashoffset: 1203}80%{ stroke-dashoffset: 0;}100%{ stroke-dashoffset: 0;}}@keyframes RaoSvraZ_draw_1{0%{stroke-dashoffset: 407}80%{ stroke-dashoffset: 0;}100%{ stroke-dashoffset: 0;}}@keyframes RaoSvraZ_draw_2{0%{stroke-dashoffset: 407}80%{ stroke-dashoffset: 0;}100%{ stroke-dashoffset: 0;}}@keyframes RaoSvraZ_draw_3{0%{stroke-dashoffset: 28}80%{ stroke-dashoffset: 0;}100%{ stroke-dashoffset: 0;}}@keyframes RaoSvraZ_draw_4{0%{stroke-dashoffset: 38}80%{ stroke-dashoffset: 0;}100%{ stroke-dashoffset: 0;}}@keyframes RaoSvraZ_draw_5{0%{stroke-dashoffset: 1609}80%{ stroke-dashoffset: 0;}100%{ stroke-dashoffset: 0;}}@keyframes RaoSvraZ_draw_6{0%{stroke-dashoffset: 1609}80%{ stroke-dashoffset: 0;}100%{ stroke-dashoffset: 0;}}</style></svg>